PathFileType	4	(X/Y/Z)	C:/Users/beibeiliu/ov580/test_trc/User1\sequence.7_training_dense_left.trc
DataRate	CameraRate	NumFrames	NumMarkers	Units	OrigDataRate	OrigDataStartFrame	OrigNumFrames
120	120	12	19	mm	120	111	295
Frame#	Time	ThumbCMC			ThumbMCP			ThumbIP			ThumbTip			IndexMCP			IndexPIP			IndexTip			MiddleMCP			MiddlePIP			MiddleTip			RingMCP			RingPIP			RingTip			PinkyMCP			PinkyPIP			PinkyTip			BackHand1			BackHand2			BackHand3	
		X0	Y0	Z0	X1	Y1	Z1	X2	Y2	Z2	X3	Y3	Z3	X4	Y4	Z4	X5	Y5	Z5	X6	Y6	Z6	X7	Y7	Z7	X8	Y8	Z8	X9	Y9	Z9	X10	Y10	Z10	X11	Y11	Z11	X12	Y12	Z12	X13	Y13	Z13	X14	Y14	Z14	X15	Y15	Z15	X16	Y16	Z16	X17	Y17	Z17	X18	Y18	Z18	
110	0.916667	-138.816	102.89	17.4811	-139.756	75.9945	-16.8369	-148.367	69.3286	-42.133	-164.278	65.4607	-62.4448	-141.742	135.141	-62.9241	-149.319	120.373	-92.2485	-150.834	89.998	-95.4371	-167.604	122.482	-73.7337	-172.45	88.1307	-79.1976	-166.931	77.0106	-39.8604	-190.416	113.096	-64.4561	-191.661	79.7155	-60.4296	-188.095	74.4026	-27.1828	-210.425	112.208	-49.7489	-203.288	85.005	-45.2229	-190.792	84.8372	-17.4639	-191.209	147.341	-7.16863	-191.78	148.604	28.4598	-153.385	143.824	10.6851	
111	0.925	-140.014	103.38	15.4044	-142.164	76.777	-11.384	-147.139	68.8403	-39.5334	-160.215	60.456	-62.972	-140.848	133.485	-64.2313	-148.556	122.514	-92.9346	-153.873	88.2219	-100.246	-166.23	122.418	-74.9329	-173.463	89.5722	-79.7555	-169.987	77.6096	-40.4929	-193.148	112.587	-64.0851	-194.32	79.6326	-60.1151	-188.326	75.081	-27.712	-214.157	115.236	-48.5246	-206.765	84.2085	-46.9517	-191.384	84.2524	-12.5659	-187.646	147.558	-12.6263	-189.026	148.266	26.7184	-156.822	142.992	10.5263	
112	0.933333	-138.311	101.211	16.4142	-141.886	75.8172	-15.2029	-148.031	68.6695	-41.0108	-160.991	59.4769	-65.3272	-139.686	131.093	-65.0831	-144.833	119.423	-96.1052	-155.361	90.2754	-110.128	-170.703	123.37	-72.1434	-170.964	88.8084	-80.8565	-169.975	75.8585	-43.4828	-192.65	111.608	-65.3595	-193.989	80.043	-59.9478	-186.986	75.7146	-27.704	-212.113	112.085	-50.9431	-205.136	87.3292	-46.8666	-191.263	87.9316	-15.0162	-189.309	148.061	-9.15707	-188.194	148.505	23.9052	-154.315	143.777	7.61303	
113	0.941667	-137.634	100.656	12.0846	-141.606	75.8235	-13.5657	-147.118	66.3929	-42.3143	-160.79	59.3885	-67.0154	-139.709	127.569	-66.1052	-146.17	116.6	-97.3291	-155.258	94.4228	-115.872	-171.016	118.892	-76.5912	-171.277	86.8936	-79.9775	-170.973	78.1472	-37.1322	-191.066	110.814	-66.6918	-191.924	80.4252	-59.6201	-187.949	77.0346	-23.4175	-212.332	114.942	-49.8412	-206.453	84.2758	-43.0639	-192.506	88.1601	-12.0009	-183.72	148.66	-13.0481	-190.221	150.275	24.3647	-152.581	141.745	9.11743	
114	0.95	-140.365	102.378	15.4572	-142.187	76.7973	-18.2995	-147.589	68.2416	-45.0616	-160.973	60.6919	-64.0423	-138.856	125.904	-68.5349	-145.102	112.937	-96.022	-157.266	96.6951	-113.685	-165.082	119.147	-74.6044	-172.979	83.2171	-75.9199	-169.657	73.8614	-42.5972	-193.273	109.872	-67.5919	-192.724	80.5592	-60.4258	-187.093	75.1516	-27.226	-209.789	116.555	-49.8857	-203.693	86.7335	-46.2674	-192.69	86.4234	-15.005	-186.929	147.792	-10.1755	-190.378	150.013	20.2327	-154.741	143.839	8.09528	
115	0.958333	-140.668	103.108	11.9503	-142.224	76.6645	-13.3384	-146.016	65.2383	-44.4162	-159.171	58.7398	-64.6058	-138.879	123.014	-68.5321	-145.206	108.051	-96.4701	-153.3	90.8446	-112.232	-169.195	117.772	-75.885	-175.072	81.709	-75.5865	-170.165	72.9335	-42.5826	-189.648	112.079	-65.2538	-191.124	75.4428	-57.082	-185.194	75.0799	-26.2825	-211.77	111.558	-52.7013	-206.979	83.8441	-44.9604	-188.911	87.634	-15.6168	-187.517	147.446	-13.6951	-187.689	149.674	21.1283	-150.55	141.189	5.61411	
116	0.966667	-139.473	102.68	14.241	-140.28	75.7442	-18.428	-144.425	64.2001	-41.2135	-159.495	58.8654	-64.7141	-141.5	119.153	-68.739	-148.024	104.892	-92.5894	-155.398	81.6973	-110.575	-169.386	117.017	-75.027	-171.318	79.6735	-78.0159	-172.597	71.759	-39.9899	-192.428	109.831	-65.5353	-190.499	74.3496	-58.1236	-187.484	72.5598	-25.8467	-209.904	108.932	-52.3336	-206.953	81.256	-45.5879	-190.764	83.0241	-14.6562	-184.336	147.924	-14.7255	-190.953	150.889	20.3072	-151.833	142.816	6.85515	
117	0.975	-137.881	99.8556	13.6586	-137.052	71.471	-17.8102	-143.278	63.0567	-40.5535	-156.325	55.1769	-63.0316	-142.232	114.692	-71.9433	-145.301	96.1471	-93.8616	-155.771	72.2608	-107.751	-168.545	114.137	-75.294	-174.248	79.1487	-77.9404	-173.85	68.7107	-41.4911	-188.725	105.783	-66.2641	-189.852	74.3426	-61.6671	-185.972	70.9454	-25.8801	-212.611	108.838	-50.7224	-205.494	78.9727	-44.2739	-187.759	81.8429	-14.749	-185.567	145.005	-17.4161	-186.457	145.753	22.9732	-155.073	141.044	3.07296	
118	0.983333	-139.177	100.739	10.6756	-137.351	72.1773	-18.6307	-143.965	63.699	-42.8572	-153.781	49.086	-64.9439	-138.225	112.366	-72.1388	-143.748	91.5684	-94.4925	-154.496	67.4112	-104.079	-165.391	111.01	-75.692	-168.875	76.5354	-79.4569	-170.259	66.0565	-40.317	-192.446	100.921	-68.439	-192.293	70.7189	-60.6818	-185.376	68.0697	-24.2269	-211.338	105.647	-51.5798	-205.292	76.5648	-46.5206	-186.048	79.5251	-16.8462	-187.939	144.384	-15.5114	-188.97	145.796	21.2205	-151.575	138.097	5.65138	
119	0.991667	-138.246	100.139	9.36972	-134.085	70.6203	-18.6045	-140.448	60.1428	-44.8489	-154.288	49.5264	-65.3245	-136.715	113.108	-69.7927	-142.077	93.2959	-93.9178	-152.116	62.5719	-101.952	-167.731	108.8	-78.2959	-169.468	71.5603	-77.7809	-167.394	63.6729	-38.3605	-190.431	100.342	-69.5443	-187.147	67.5721	-61.2612	-184.787	65.1212	-28.0315	-209.478	101.939	-53.1869	-203.217	73.8005	-45.7112	-184.821	79.8892	-17.6653	-187.676	142.758	-19.6083	-190.531	144.105	17.7586	-155.03	139.284	4.52169	
120	1	-134.534	98.2784	11.895	-136.427	71.7233	-14.4073	-141.862	59.9433	-42.2515	-151.51	48.7305	-60.8484	-138.527	112.932	-73.8703	-143.793	92.9765	-93.979	-149.078	61.4003	-98.0642	-166.861	109.596	-75.946	-167.032	71.8883	-78.8746	-167.501	62.9554	-43.1103	-186.757	102.789	-67.6954	-187.064	68.1979	-63.8015	-183.866	64.2334	-26.5928	-205.932	98.8829	-54.7298	-197.808	72.503	-45.6946	-186.104	73.4112	-19.9459	-188.157	140.609	-15.5714	-190.089	141.903	18.5875	-150.038	136.82	0.27103	
121	1.00833	-133.092	96.136	11.0883	-135.165	68.68	-13.2661	-139.239	57.8212	-41.6585	-152.852	46.9726	-66.4903	-140.212	113.037	-72.7095	-144.435	92.3098	-94.3491	-151.208	56.5643	-90.385	-165.456	104.7	-79.1445	-163.849	73.026	-81.6349	-167.906	61.0506	-43.6615	-190.361	99.4928	-67.836	-189.908	65.5741	-62.3865	-184.601	62.0564	-29.2631	-208.694	100.463	-53.6693	-201.71	70.3746	-48.9886	-188.439	70.9993	-19.2595	-185.479	137.363	-18.6097	-189.716	140.226	20.3901	-151.468	136.76	2.95889	
